<!DOCTYPE svg PUBLIC "-//W3C//DTD SVG 1.1//EN" "http://www.w3.org/Graphics/SVG/1.1/DTD/svg11.dtd">
<!-- Uploaded to: SVG Repo, www.svgrepo.com, Transformed by: SVG Repo Mixer Tools -->
<svg fill="#fff" width="800px" height="800px" viewBox="0 0 32 32" version="1.1" xmlns="http://www.w3.org/2000/svg" stroke="#fff">
<g id="SVGRepo_bgCarrier" stroke-width="0"/>
<g id="SVGRepo_tracerCarrier" stroke-linecap="round" stroke-linejoin="round"/>
<g id="SVGRepo_iconCarrier"> <title>spinner</title> <path d="M16 0.75c-1.795 0-3.25 1.455-3.25 3.25s1.455 3.25 3.25 3.25c1.795 0 3.25-1.455 3.25-3.25v0c-0.002-1.794-1.456-3.248-3.25-3.25h-0zM16 4.75c-0.414 0-0.75-0.336-0.75-0.75s0.336-0.75 0.75-0.75c0.414 0 0.75 0.336 0.75 0.75v0c-0.001 0.414-0.336 0.749-0.75 0.75h-0zM7.25 16c0-1.795-1.455-3.25-3.25-3.25s-3.25 1.455-3.25 3.25c0 1.795 1.455 3.25 3.25 3.25v0c1.794-0.002 3.248-1.456 3.25-3.25v-0zM4 16.75c-0.414 0-0.75-0.336-0.75-0.75s0.336-0.75 0.75-0.75c0.414 0 0.75 0.336 0.75 0.75v0c-0.001 0.414-0.336 0.749-0.75 0.75h-0zM16 24.75c-1.795 0-3.25 1.455-3.25 3.25s1.455 3.25 3.25 3.25c1.795 0 3.25-1.455 3.25-3.25v0c-0.002-1.794-1.456-3.248-3.25-3.25h-0zM16 28.75c-0.414 0-0.75-0.336-0.75-0.75s0.336-0.75 0.75-0.75c0.414 0 0.75 0.336 0.75 0.75v0c-0 0.414-0.336 0.75-0.75 0.75h-0zM28 12.75c-1.795 0-3.25 1.455-3.25 3.25s1.455 3.25 3.25 3.25c1.795 0 3.25-1.455 3.25-3.25v0c-0.002-1.794-1.456-3.248-3.25-3.25h-0zM28 16.75c-0.414 0-0.75-0.336-0.75-0.75s0.336-0.75 0.75-0.75c0.414 0 0.75 0.336 0.75 0.75v0c-0 0.414-0.336 0.75-0.75 0.75h-0zM24.486 21.236c-1.795 0-3.25 1.455-3.25 3.25s1.455 3.25 3.25 3.25c1.795 0 3.25-1.455 3.25-3.25v0c-0.001-1.794-1.456-3.249-3.25-3.25h-0zM24.486 25.236c-0.414 0-0.75-0.336-0.75-0.75s0.336-0.75 0.75-0.75c0.414 0 0.75 0.336 0.75 0.75v0c-0 0.414-0.336 0.75-0.75 0.75v0zM7.508 21.242c-1.795 0-3.25 1.455-3.25 3.25s1.455 3.25 3.25 3.25c1.795 0 3.25-1.455 3.25-3.25v0c-0.002-1.794-1.456-3.248-3.25-3.25h-0zM7.508 25.242c-0.414 0-0.75-0.336-0.75-0.75s0.336-0.75 0.75-0.75c0.414 0 0.75 0.336 0.75 0.75v0c-0 0.414-0.336 0.75-0.75 0.75h-0zM7.533 4.283c-1.795 0-3.25 1.455-3.25 3.25s1.455 3.25 3.25 3.25c1.795 0 3.25-1.455 3.25-3.25v0c-0.002-1.794-1.456-3.248-3.25-3.25h-0zM7.533 8.283c-0.414 0-0.75-0.336-0.75-0.75s0.336-0.75 0.75-0.75c0.414 0 0.75 0.336 0.75 0.75v0c-0.001 0.414-0.336 0.749-0.75 0.75h-0z"/> </g>
</svg>